<svg width="24" height="24" fill="none" xmlns="http://www.w3.org/2000/svg"><path d="M23.986 5.703l-1.351 7.713a2.792 2.792 0 01-.915 1.631 2.606 2.606 0 01-1.709.643H7.126l.485 2.769h11.945c.566 0 1.118.186 1.575.534.457.347.796.836.968 1.396a2.87 2.87 0 01-.013 1.72 2.764 2.764 0 01-.989 1.382 2.6 2.6 0 01-1.583.508 2.605 2.605 0 01-1.567-.56 2.774 2.774 0 01-.946-1.414 2.87 2.87 0 01.04-1.72h-6.527c.156.458.194.951.109 1.43-.085.477-.29.924-.594 1.294s-.697.65-1.138.812a2.575 2.575 0 01-1.377.113 2.627 2.627 0 01-1.246-.618 2.775 2.775 0 01-.782-1.182 2.87 2.87 0 01-.108-1.43 2.81 2.81 0 01.596-1.293L2.894 1.846H.89a.873.873 0 01-.629-.27A.941.941 0 010 .923C0 .678.094.443.26.27A.873.873 0 01.89 0h2.006c.416 0 .82.151 1.139.428.32.278.535.662.61 1.088l.542 3.099h17.925a.868.868 0 01.683.331.935.935 0 01.192.757z" fill="#EAEAEA"/></svg>