<svg width="20" height="18" fill="none" xmlns="http://www.w3.org/2000/svg"><path fill-rule="evenodd" clip-rule="evenodd" d="M18.736.574c-.067.031-.18.119-.25.194-.09.096-.838 1.675-2.466 5.204-2.531 5.485-2.442 5.267-2.33 5.734.027.114.104.283.17.375l.12.166-.243-.028c-.516-.058-1.138.183-1.513.586-.207.222-.425.662-.514 1.037-.084.36-.077.989.02 1.612.127.825.104 1.256-.105 1.932-.03.098-.03.098.199.071.755-.088 1.731-.572 2.38-1.178.507-.475 1.048-1.31 1.159-1.792a1.88 1.88 0 00-.449-1.69l-.153-.167.18-.007a1.235 1.235 0 001.053-.678c.056-.117.95-2.52 1.988-5.34 1.813-4.93 1.884-5.136 1.868-5.362-.018-.26-.087-.38-.332-.578-.126-.102-.195-.125-.406-.136a.904.904 0 00-.376.045zM9.483.99l-.531.061c-1.352.154-3 .734-4.126 1.451-1.01.643-2.086 1.627-2.745 2.509C.046 7.737-.532 11.165.504 14.365c.306.945.58 1.433 1.102 1.957.501.504 1.082.833 1.824 1.036.416.113 1.36.124 1.773.02.99-.247 1.772-.783 2.371-1.622.665-.931 1.276-1.533 2.113-2.082.35-.23 1.067-.602 1.295-.673.053-.016.149-.133.235-.288.279-.498.833-.986 1.34-1.18.182-.069.19-.08.214-.263.013-.106.05-.294.081-.418.032-.125.84-1.92 1.796-3.989.957-2.07 1.739-3.78 1.739-3.801 0-.021-.244-.199-.541-.395a11.66 11.66 0 00-2.094-1.069 12.974 12.974 0 00-2.104-.528c-.443-.065-1.843-.116-2.165-.079zm1.74 1.94c-.334.055-.684.256-.956.546-.345.37-.434.61-.434 1.167 0 .558.09.798.434 1.167.694.741 1.78.767 2.49.06.257-.258.375-.461.464-.805.253-.971-.382-1.949-1.386-2.134-.27-.05-.324-.05-.612-.001zM5.785 4.513c-.49.17-.837.48-1.053.94-.159.34-.2.843-.096 1.199.372 1.28 2.007 1.677 2.922.71.605-.64.656-1.552.127-2.254a1.921 1.921 0 00-.872-.608c-.276-.081-.772-.075-1.028.013zm13.04 2.327l-1.15 3.115c-.569 1.547-.923 2.452-1.004 2.568-.069.098-.115.188-.102.2.037.038.673-.111.962-.224.964-.377 1.844-1.246 2.202-2.173.213-.552.264-.827.267-1.433.003-.66-.065-.999-.331-1.655-.161-.396-.526-1.123-.563-1.123-.008 0-.134.326-.282.725zM3.808 9.468c-.518.101-1.016.485-1.233.95-.247.527-.247.997 0 1.524.309.66 1.105 1.083 1.807.96a1.776 1.776 0 001.47-1.47c.123-.7-.3-1.498-.956-1.806-.397-.185-.715-.231-1.088-.158z" fill="#5856D2"/></svg>