<svg width="20" height="16" fill="none" xmlns="http://www.w3.org/2000/svg"><path fill-rule="evenodd" clip-rule="evenodd" d="M1.358.05C.714.156.153.717.031 1.378c-.026.14-.036 2.475-.029 6.762l.01 6.55.092.228c.175.432.604.843 1.038.991.183.063.757.068 8.66.078 5.792.008 8.549-.002 8.736-.03.15-.023.369-.088.487-.145.427-.206.83-.728.887-1.146.011-.084.036-.163.054-.175.019-.011.034-2.91.034-6.534 0-3.69-.015-6.503-.034-6.492-.019.012-.043-.047-.054-.131-.036-.262-.208-.577-.447-.815a1.593 1.593 0 00-.908-.472C18.235-.004 1.67-.001 1.358.05zm.175 1.337a.37.37 0 00-.166.156c-.037.081-.048 1.526-.048 6.462 0 6.996-.017 6.533.239 6.622.176.061 16.662.061 16.838 0 .256-.09.239.374.239-6.626s.017-6.537-.239-6.626c-.197-.068-16.705-.057-16.863.012zM.012 8c0 3.593.005 5.063.01 3.266.006-1.796.006-4.736 0-6.532C.017 2.938.012 4.408.012 8zm4.03-5.229c-.707.226-1.267.889-1.356 1.602-.099.795.177 1.443.819 1.926.332.25.661.35 1.149.348.62-.002 1-.163 1.437-.609.424-.432.601-.987.528-1.656-.076-.707-.654-1.392-1.355-1.61-.328-.1-.909-.101-1.223 0zm6.257 4.225L7.637 9.658l-.829-.828L5.98 8 4.311 9.67l-1.667 1.668.01.994.01.994H17.29l.01-2.32.01-2.321-2.175-2.175-2.175-2.174-2.66 2.661z" fill="#5856D2"/></svg>