<svg width="22" height="20" fill="none" xmlns="http://www.w3.org/2000/svg"><path fill-rule="evenodd" clip-rule="evenodd" d="M13.652.854c-.119.113-.931 1.383-1.135 1.774-.113.218.007.364.593.721.528.322.634.422.633.598 0 .049-.12.288-.265.531l-.266.442.327.19a5.368 5.368 0 012.095 2.303c.27.587.376 1.025.406 1.697.017.395.046.602.082.602.03 0 .486-.185 1.013-.41l.958-.408.454-.733c.46-.743.595-.906.747-.906.046 0 .34.155.653.344.313.19.614.344.669.344.055 0 .154-.05.22-.11C21.027 7.656 22 6.053 22 5.915a.409.409 0 00-.086-.225c-.1-.118-2.43-2.022-2.475-2.022-.017 0-.093.09-.17.2-.147.213-.424.424-.71.54-.273.112-.813.085-1.105-.055-.763-.366-1.078-1.28-.695-2.018a3.26 3.26 0 00.13-.264c0-.03-2.954-1.352-3.022-1.352-.04 0-.137.06-.215.135zM2.277 2.706c-.555.149-.82.498-1.038 1.358-.388 1.541-.244 2.999.447 4.519l.167.369L4.15 9.99c1.263.57 2.304 1.031 2.313 1.023.009-.008-.041-.242-.11-.518-.15-.59-.173-1.398-.057-1.948.163-.773.588-1.744.96-2.195.11-.131.198-.264.198-.296 0-.123-.8-1.114-1.241-1.535-.975-.932-1.992-1.5-3.204-1.791-.457-.11-.422-.108-.731-.025zm.335 1.364c-.23.131-.23.35.006.738l.178.292-.162.135c-.201.169-.223.413-.05.554.135.108.257.114.44.02l.136-.07.187.324.187.325-.162.132c-.124.1-.162.17-.162.294 0 .217.175.363.383.32.325-.065.33-.062.508.24l.171.29-.155.127c-.305.252-.137.711.228.622.292-.071.313-.061.498.243.208.341.375.449.564.362a.385.385 0 00.174-.197c.042-.122.022-.191-.141-.5l-.19-.359.168-.15c.2-.18.212-.32.042-.49-.127-.127-.21-.134-.496-.042-.09.028-.13-.01-.282-.278l-.177-.312.145-.123c.2-.17.231-.338.096-.51-.11-.14-.221-.152-.516-.056-.087.028-.13-.014-.283-.27a2.418 2.418 0 01-.18-.335c0-.018.064-.069.14-.113.31-.175.202-.614-.146-.602a1.188 1.188 0 00-.27.04c-.088.03-.13-.01-.29-.283-.102-.176-.24-.343-.304-.373C2.754 4 2.736 4 2.612 4.07zm7.986 1.154a.54.54 0 00-.213.063c-.035.035.624 2.633.755 2.979l.045.119.626-.221.63-.22c.003 0-.003-.327-.014-.726a6.834 6.834 0 01.06-1.238c.061-.407.065-.52.016-.551-.228-.142-1.422-.27-1.905-.205zm-1.302.403c-.216.103-.504.27-.639.373-.325.246-.713.623-.713.694 0 .032.12.203.267.382.308.376.638.897.872 1.374l.163.335.239-.033c.295-.04 1.06-.199 1.086-.225.01-.01-.144-.627-.343-1.37-.454-1.692-.462-1.72-.504-1.719-.02 0-.212.086-.428.189zm3.767.446c-.06.366-.078 1.488-.024 1.542.04.04.549-.239 1.037-.566l.357-.24-.154-.192c-.238-.296-.989-.885-1.128-.885-.017 0-.057.153-.088.34zM7.486 7.309c-.238.366-.573 1.391-.484 1.481.05.05 1.508.078 1.555.03.073-.071-.447-.945-.899-1.511l-.094-.118-.078.118zm6.916.22c-.166.118-.52.333-.787.476-.46.247-.485.27-.472.407.045.47.706 2.153.871 2.216.082.032 1.162-.455 1.245-.562.092-.118.05-1.356-.06-1.754-.095-.34-.4-1.01-.458-1.003a2.472 2.472 0 00-.34.22zm-2.477 1.213c-.31.11-.574.209-.586.217-.024.02.638 2.533.68 2.58.027.029 1.332-.533 1.403-.604.016-.016-.082-.26-.22-.54a9.953 9.953 0 01-.61-1.727c-.017-.074-.046-.133-.066-.131-.02.002-.29.094-.6.205zm-1.876.496c-.289.058-.538.119-.553.135-.016.015.005.137.045.27.2.656.292 1.317.294 2.121 0 .44.005.799.008.799.03 0 1.573-.705 1.598-.73.017-.017-.129-.629-.325-1.359-.303-1.13-.37-1.328-.449-1.334-.051-.004-.33.04-.618.098zm-3.124.216c-.037.097.081.824.193 1.187.055.178.162.446.237.595l.137.27.853.381c.469.21.873.381.897.381.065 0-.005-1.339-.09-1.745a15.01 15.01 0 00-.183-.731l-.108-.388-.47.028a8.917 8.917 0 01-.956-.006c-.375-.027-.49-.02-.51.028zm-5.846 1.28c-.6.48-1.086.89-1.079.915.01.032 5.112 2.361 7.49 3.418.097.043.217-.037 1.068-.716.943-.751.96-.767.96-.95 0-.103-.029-.21-.062-.236-.052-.042-7.095-3.238-7.237-3.284-.027-.009-.54.375-1.14.854zm14.899-.18a19632.039 19632.039 0 01-5.392 2.439l-.38.173.002.227.002.226.743.59.948.75.204.16 3.685-1.665a525.273 525.273 0 003.823-1.737l.136-.071-1.074-.85a805.71 805.71 0 00-1.124-.891c-.03-.023-.71.258-1.573.649zm-13.772 4.18l.013 1.285 3.612 1.632c1.987.898 3.629 1.623 3.65 1.611.05-.029.046-4.672-.004-4.703-.022-.014-.414.275-.872.642-.458.366-.857.675-.886.687-.03.012-1.235-.513-2.679-1.165a378.513 378.513 0 00-2.736-1.23l-.111-.044.013 1.285zm12.546-.053c-1.487.673-2.72 1.224-2.742 1.224-.022 0-.425-.31-.896-.688-.47-.379-.868-.688-.883-.688-.014 0-.026 1.075-.026 2.389 0 1.892.013 2.383.062 2.363l3.649-1.649 3.587-1.623.013-1.24c.008-.683-.003-1.257-.024-1.276-.021-.02-1.254.515-2.74 1.188z" fill="#5856D2"/></svg>