<svg width="20" height="20" fill="none" xmlns="http://www.w3.org/2000/svg"><path fill-rule="evenodd" clip-rule="evenodd" d="M6.816.584c-.67.18-1.224.942-1.85 2.539-.298.762-.955 2.837-.955 3.019 0 .033 1.52.044 5.967.044 4.184 0 5.968-.012 5.968-.041 0-.127-.545-1.91-.78-2.553-.78-2.127-1.393-2.958-2.246-3.045-.479-.049-.933.13-1.859.732-.637.414-.848.514-1.083.514s-.446-.1-1.082-.514C7.852.6 7.362.437 6.816.584zM3.84 6.762a96.09 96.09 0 00-.355 1.52l-.02.088h13.029l-.02-.087c-.01-.049-.089-.386-.175-.751l-.177-.75-.02-.089H9.98c-5.795 0-6.122.004-6.142.069zM2.821 9.175C2.39 9.586 1.51 10.34.657 11.03c-.871.706-.872.747-.02.926 1.251.262 2.693.414 5.285.556 1.244.069 6.854.069 8.132 0 2.395-.128 3.927-.286 5.186-.537.524-.104.631-.142.712-.247.056-.073.066-.213.014-.18-.02.012-.047.004-.06-.017a16.43 16.43 0 00-.735-.612 37.65 37.65 0 01-1.965-1.68l-.436-.4-6.799.001-6.798.002-.352.333zM0 11.647c0 .053.009.075.02.048a.15.15 0 000-.097c-.011-.027-.02-.005-.02.049zm4.784 2.418c-.25.019-.557.054-.682.078-.125.025-.74.084-1.365.131-.773.06-1.157.104-1.199.139-.052.043-.062.158-.062.742 0 .781-.017.735.335.912l.199.099.025.402c.033.525.147.986.344 1.397.13.27.221.392.496.664.395.391.785.607 1.35.746.457.113 1.426.121 1.912.017 1.518-.328 2.56-1.132 2.932-2.266.087-.264.103-.383.105-.78 0-.257-.018-.532-.042-.611l-.043-.144.156-.062c.085-.034.285-.082.444-.107.32-.05.74-.006 1.023.107l.156.062-.044.144c-.023.079-.042.354-.04.611 0 .397.017.516.104.78.314.957 1.13 1.703 2.28 2.085.598.2.908.248 1.588.25.74.001 1.125-.076 1.658-.333.47-.227.936-.693 1.163-1.163.198-.41.311-.872.345-1.397l.025-.402.22-.111c.122-.062.242-.137.268-.169.035-.041.045-.25.037-.753l-.01-.697-.098-.045c-.054-.024-.545-.074-1.092-.11a18.622 18.622 0 01-1.299-.121c-.474-.086-1.515-.143-2.094-.115-1.195.058-1.98.262-2.414.627l-.124.104-.36-.073c-.5-.101-1.505-.101-2.006 0l-.359.073-.124-.104c-.3-.252-.84-.45-1.485-.545-.508-.075-1.629-.106-2.223-.062z" fill="#5856D2"/></svg>