<svg width="20" height="17" fill="none" xmlns="http://www.w3.org/2000/svg"><path d="M19.257 6.49l.016-.024a.598.598 0 00.017-.026l.013-.025a.61.61 0 00.025-.054l.011-.028.01-.027.008-.032.006-.026a.595.595 0 00.009-.058v-.014a.592.592 0 00.003-.046v-.022a.708.708 0 00-.017-.125.623.623 0 00-.037-.112l-.013-.027-.014-.026a.691.691 0 00-.032-.05l-.017-.024-.019-.024-.006-.007-4.375-5a.624.624 0 00-.47-.213h-8.75a.625.625 0 00-.47.213l-4.375 5-.006.007-.019.024-.018.024-.015.024a.62.62 0 00-.091.252l-.003.026a.65.65 0 00-.002.038l-.001.017v.005l.003.046v.014a.37.37 0 00.016.084l.008.032.009.027.01.028.012.026.014.028.014.025.016.026.016.024a.653.653 0 00.038.047l.012.014 8.75 9.375.028.027.013.013c.02.018.041.034.063.05l.016.01a.602.602 0 00.057.032l.019.01a.83.83 0 00.075.028c.003.002.007.002.011.003a.636.636 0 00.35 0 .611.611 0 00.086-.032l.02-.01a.622.622 0 00.056-.032l.016-.01a.63.63 0 00.063-.049l.013-.013a.237.237 0 00.028-.027l8.75-9.375.012-.014a.587.587 0 00.02-.023l.018-.024zm-13.512.26l2.386 5.831L2.688 6.75h3.057zm8.51 0h3.057l-5.443 5.831 2.386-5.831zm3.118-1.25h-3.23l-2.876-3.75h2.824l3.282 3.75zM5.909 1.75h2.824L5.856 5.5H2.627L5.91 1.75z" fill="#5856D2"/></svg>