<svg width="279" height="63" fill="none" xmlns="http://www.w3.org/2000/svg"><path d="M77.28 40.906v-.63l1.309-.508 5.256-14.34-.388-1.065 1.769-.703 5.813 15.648c.266.75.363.968 1.162.968h1.042v.63h-5.062v-.63h1.162l-1.356-3.657h-7.485l-.993 2.664a1.36 1.36 0 00-.072.412c0 .436.387.581 1.017.581h.727v.63h-3.9zm3.44-4.892h7.049l-3.56-9.592-3.489 9.591zm17.64-11.506v-.605h3.56a17.829 17.829 0 013.028-.218c2.809 0 5.886 1.041 5.886 4.263 0 2.712-1.817 3.924-4.142 4.408l4.553 6.952c.436.654.921.968 1.72.968h.509v.63h-3.827v-.63l-5.038-7.702h-.533c-.46 0-1.066-.048-1.768-.121v6.855c0 .799.145.968.944.968h1.042v.63H99.23v-.63h1.115V25.477c0-.8-.146-.969-.945-.969h-1.041zm3.948 7.267c.581.072 1.09.097 1.647.097 2.906 0 4.941-1.09 4.941-3.803 0-2.01-1.114-3.682-5.014-3.682-.872 0-1.574.121-1.574.121v7.267zm16.274-3.585v-4.287h14v4.287h-.629l-1.357-3.682h-4.045v14.8c0 .799.145.968.945.968h1.041v.63h-5.038v-.63h1.114V24.508h-4.069l-1.332 3.682h-.63zm30.166 12.716v-.63l1.308-.508 5.256-14.34-.388-1.065 1.769-.703 5.813 15.648c.266.75.363.968 1.162.968h1.042v.63h-5.062v-.63h1.162l-1.356-3.657h-7.485l-.993 2.664a1.36 1.36 0 00-.072.412c0 .436.387.581 1.017.581h.727v.63h-3.9zm3.439-4.892h7.049l-3.561-9.592-3.488 9.591zm17.639-11.506v-.605h5.062v.605h-1.114v14.8c0 .799.145.968.944.968h6.104l1.332-3.657h.654v4.287h-12.111v-.63h1.115V25.477c0-.8-.146-.969-.945-.969h-1.041zm18.972 0v-.605h12.111v4.287h-.63l-1.357-3.682h-6.176v7.29h1.817c1.719 0 2.494-.072 3.463-.169l.073.679v.12l-.678.073c-.727-.072-1.139-.072-1.865-.072h-2.81v6.879c0 .799.145.968.945.968h6.103l1.333-3.657h.654v4.287H189.67v-.63h1.114V25.477c0-.8-.145-.969-.945-.969h-1.041zm18.972 0v-.605h3.561a17.81 17.81 0 013.027-.218c2.81 0 5.886 1.041 5.886 4.263 0 2.228-1.211 3.44-2.906 4.045 1.719.387 3.899 1.405 3.899 4.263 0 3.052-2.325 4.844-6.249 4.844-1.671 0-2.446-.073-3.657-.194h-2.689v-.63h1.114V25.477c0-.8-.145-.969-.944-.969h-1.042zm3.948 14.8c0 .872.485 1.09 2.447 1.09 3.463 0 5.086-1.575 5.086-3.973 0-3.827-3.778-3.996-7.533-3.996v6.879zm0-7.51h2.931c2.156-.241 3.658-1.428 3.658-3.73 0-2.01-1.115-3.68-5.014-3.68-.872 0-1.575.12-1.575.12v7.29zm15.498-7.29v-.605h3.56a17.829 17.829 0 013.028-.218c2.81 0 5.886 1.041 5.886 4.263 0 2.712-1.817 3.924-4.142 4.408l4.554 6.952c.435.654.92.968 1.719.968h.509v.63h-3.827v-.63l-5.038-7.702h-.533c-.46 0-1.066-.048-1.768-.121v6.855c0 .799.145.968.944.968h1.042v.63h-5.062v-.63h1.114V25.477c0-.8-.146-.969-.945-.969h-1.041zm3.948 7.267c.581.072 1.09.097 1.647.097 2.906 0 4.941-1.09 4.941-3.803 0-2.01-1.114-3.682-5.014-3.682-.872 0-1.574.121-1.574.121v7.267zm16.278-7.267v-.605h5.062v.605h-1.114v14.8c0 .799.145.968.944.968h1.042v.63h-5.062v-.63h1.114V25.477c0-.8-.146-.969-.945-.969h-1.041zm11.92 7.824c0-4.772 3.464-8.647 8.647-8.647s8.405 3.85 8.405 8.502c0 4.747-3.27 8.913-8.405 8.913-5.28 0-8.647-4.02-8.647-8.768zm1.938-.121c0 4.166 2.398 8.187 6.709 8.187 4.287 0 6.467-4.094 6.467-8.212 0-3.996-2.18-7.799-6.467-7.799-4.36 0-6.709 3.755-6.709 7.824z" fill="#fff"/><path fill-rule="evenodd" clip-rule="evenodd" d="M41.529 21.805c-.791-.483 0-1.85.78-2.568a14.618 14.618 0 012.302-1.552 7.963 7.963 0 01-.77 2.99c-.607.832-1.51 1.613-2.302 1.13m13.356-.442a9.36 9.36 0 01-8.969 6.71 9.493 9.493 0 01-3.503-.679h-.319A12.585 12.585 0 0029.488 39.98a12.41 12.41 0 001.192 5.342l-1.644 2.055a14.98 14.98 0 015.425-20.301 31.853 31.853 0 002.702-5.27 12.329 12.329 0 00-4.685-13.46c.843-.43 1.737-.75 2.66-.955a14.63 14.63 0 014.624 7.85 6.668 6.668 0 012.671-1.285c2.106-.473 2.64 0 2.64 0 .145.395.225.812.237 1.233a5.137 5.137 0 01-.237 1.397 5.856 5.856 0 00-2.876.483c-.72.381-1.407.82-2.055 1.315a14.601 14.601 0 01-.575 4.048 15.015 15.015 0 01-1.254 3.082 37.28 37.28 0 011.274-.277 9.721 9.721 0 005.291-15.524c.721.348 1.421.74 2.096 1.171a25.211 25.211 0 012.25 1.921 12.112 12.112 0 01-4.418 12.432c.35.061.689.133 1.028.226a6.709 6.709 0 006.667-6.72 6.811 6.811 0 00-.431-2.332 15.698 15.698 0 012.815 4.952m-12.133-9.308c-.843.72-2.055-.668-2.64-1.839a18.648 18.648 0 01-.915-3.185 9.667 9.667 0 013.082 1.973c.72 1.027 1.274 2.322.431 3.082m-11.342 3.75a2.394 2.394 0 11-.02 4.788 2.394 2.394 0 01.02-4.788zm-10.274 5.97c-.79.482-1.695-.299-2.301-1.131a7.963 7.963 0 01-.77-2.99c.813.445 1.583.965 2.3 1.552.792.719 1.573 2.054.771 2.568zm4.356 0a12.267 12.267 0 003.863 5.999c.33.247.648.493.956.75l-1.52 1.85a12.585 12.585 0 00-8.22-3.083h-.318a9.36 9.36 0 01-12.473-6.03 15.7 15.7 0 012.754-4.88 6.81 6.81 0 00-.432 2.383 6.709 6.709 0 006.668 6.719c.339-.092.678-.164 1.027-.226a12.113 12.113 0 01-4.417-12.431 28.468 28.468 0 012.25-1.922 20.104 20.104 0 012.126-1.212c-.242.3-.465.616-.668.945a9.708 9.708 0 005.99 14.527h.36c.318.062.626.134.945.216a14.507 14.507 0 01-1.829-7.089 14.968 14.968 0 00-2.055-1.315 5.856 5.856 0 00-2.876-.483 5.141 5.141 0 01-.237-1.397c.012-.42.091-.837.237-1.233 0 0 .534-.472 2.64 0a6.666 6.666 0 012.671 1.284 14.65 14.65 0 017.14-9.636c.483 0 .966-.052 1.46-.052a26.157 26.157 0 015.136.504 12.38 12.38 0 00-11.095 15.74m-5.6-9.74c-.842-.73-.287-2.055.432-3.083a9.669 9.669 0 013.082-1.972 17.68 17.68 0 01-.997 3.308c-.534 1.171-1.797 2.558-2.64 1.84m-8.075 28.005c-.884.576-1.932-.277-2.64-1.191a9.062 9.062 0 01-.956-3.36 16.92 16.92 0 012.63 1.675c.925.791 1.85 2.312.966 2.877zm15.072-7.52c-.627.688-1.716.195-2.528-.421a7.973 7.973 0 01-1.592-2.65 14.64 14.64 0 012.64.831c.966.463 2.106 1.552 1.48 2.24zM23.24 39.62c.463.442.627 1.695-.955 2.158-1.26.279-2.557.359-3.842.236a4.624 4.624 0 011.684-1.922c1.1-.616 2.662-.914 3.083-.472m-8.867-6.72a9.083 9.083 0 01-.965-3.359c.93.48 1.813 1.044 2.64 1.685.914.781 1.839 2.302.956 2.877-.884.575-1.922-.288-2.63-1.202zm3.37-3.246c.75-.123 1.695-.246 2.713-.42a6.75 6.75 0 004.705 5.794h.154l.226.072s-.092.349-.154.564a24.536 24.536 0 00-.668 2.692 6.77 6.77 0 00-8.414 3.34l-.072.143-2.414-.832c.072-.175.154-.36.236-.534a9.367 9.367 0 011.603-2.281c-.247-.062-.504-.123-.75-.206a9.35 9.35 0 01-6.165-11.67 23.81 23.81 0 002.374 1.941 6.71 6.71 0 009.43 6.976 9.482 9.482 0 01-2.763-5.579m15.34 10.274a12.42 12.42 0 00-1.182-5.311l1.643-2.055a14.989 14.989 0 01-13.068 22.407c-.37 0-.74 0-1.1-.051a25.899 25.899 0 01-7.19-5.435 12.585 12.585 0 0020.834-9.503M31.4 52.812a17.47 17.47 0 003.596 2.393c1.631.513 3.296.91 4.983 1.192a26.188 26.188 0 01-16.562.206 12.781 12.781 0 006.062-2.117c1.92-1.459 1.92-1.674 1.92-1.674zm2.168-3.524a12.585 12.585 0 0016.756.226 26.105 26.105 0 01-7.191 5.434c-.36 0-.73.052-1.1.052a14.928 14.928 0 01-9.965-3.801l1.5-1.911zm8.866-9.165a4.622 4.622 0 011.685 1.922 12.329 12.329 0 01-3.843-.237c-1.582-.462-1.417-1.715-.955-2.157.462-.442 2.055-.144 3.082.472m-6.678-7.52c-.616-.688.514-1.777 1.48-2.24.852-.36 1.736-.639 2.64-.832a8.075 8.075 0 01-1.582 2.65c-.822.617-1.911 1.11-2.538.422zm9.802 1.53c-.884-.575 0-2.054.955-2.876.827-.64 1.71-1.205 2.64-1.685a9.246 9.246 0 01-.955 3.36c-.71.914-1.757 1.767-2.64 1.202zm8.331-7.818a9.35 9.35 0 01-6.164 11.671c-.246.083-.503.144-.75.206a9.37 9.37 0 011.603 2.28c.092.175.164.36.236.535l-2.476.873a.937.937 0 00-.072-.144 6.77 6.77 0 00-8.414-3.339 25.965 25.965 0 00-.657-2.691c-.083-.268-.185-.576-.185-.576l.256-.061h.144a6.78 6.78 0 004.716-5.795c1.027.175 1.952.298 2.702.421a9.523 9.523 0 01-2.753 5.58 6.698 6.698 0 009.42-6.977 23.77 23.77 0 002.395-1.983zm-2.054 10.9a16.915 16.915 0 012.63-1.674 9.063 9.063 0 01-.956 3.36c-.708.914-1.756 1.767-2.64 1.191-.884-.575 0-2.054.966-2.876z" fill="#fff"/><path fill-rule="evenodd" clip-rule="evenodd" d="M31.822 62.643a30.822 30.822 0 110-61.643 30.822 30.822 0 010 61.643zm0-59.25a28.428 28.428 0 1028.427 28.428A28.42 28.42 0 0031.821 3.395z" fill="#fff" stroke="#010101" stroke-width=".428" stroke-miterlimit="10"/></svg>