<svg width="14" height="11" fill="none" xmlns="http://www.w3.org/2000/svg"><path d="M13.5.988a.512.512 0 00-.026-.146l-.008-.023a.532.532 0 00-.072-.127.553.553 0 00-.017-.02l-.008-.01-.008-.007a.522.522 0 00-.055-.05l-.02-.015-.02-.012-.022-.014-.02-.01L13.2.541l-.023-.009-.022-.008-.024-.007-.023-.006A.487.487 0 0013.01.5H.99a.506.506 0 00-.075.008L.89.512.868.518.844.525.821.534.799.542.776.554l-.02.01a.5.5 0 00-.023.014L.715.59a.47.47 0 00-.076.065L.63.662l-.008.01A.523.523 0 00.52.865a.516.516 0 00-.018.123L.5 1v8.5a1.001 1.001 0 001 1h11a1.002 1.002 0 001-1V.988zm-12 1.149L5.17 5.5 1.5 8.863V2.137zM2.285 9.5L5.91 6.178l.753.69a.5.5 0 00.676 0l.753-.69L11.715 9.5h-9.43zm6.546-4l3.67-3.363v6.727L8.83 5.5z" fill="#3F3F3F"/></svg>