<svg width="23" height="25" fill="none" xmlns="http://www.w3.org/2000/svg"><path d="M0 21.645V9.077c0-.442.1-.861.297-1.257a2.69 2.69 0 01.82-.978L9.496.56A2.691 2.691 0 0111.17 0c.629 0 1.187.186 1.676.559l8.379 6.284c.349.256.623.581.82.977.2.396.298.815.297 1.257v12.568a2.69 2.69 0 01-.821 1.973 2.684 2.684 0 01-1.972.82h-4.19c-.395 0-.726-.135-.993-.403a1.358 1.358 0 01-.403-.994V16.06c0-.396-.134-.727-.402-.994a1.358 1.358 0 00-.994-.402H9.775c-.396 0-.727.134-.994.402s-.402.6-.402.994v6.982c0 .396-.134.728-.403.996-.268.268-.6.401-.994.4h-4.19a2.688 2.688 0 01-1.97-.82A2.695 2.695 0 010 21.646z" fill="#EAEAEA"/></svg>