<svg width="21" height="23" fill="none" xmlns="http://www.w3.org/2000/svg"><path d="M14.058 1.609C13.097.571 11.754 0 10.273 0 8.783 0 7.436.568 6.48 1.6c-.967 1.042-1.438 2.459-1.328 3.989.22 3.018 2.517 5.474 5.12 5.474 2.605 0 4.898-2.455 5.12-5.473.113-1.517-.361-2.93-1.334-3.981zm4.907 20.516H1.58a1.53 1.53 0 01-1.196-.55c-.32-.383-.45-.907-.354-1.437.417-2.313 1.718-4.255 3.762-5.618 1.817-1.21 4.117-1.877 6.48-1.877 2.362 0 4.663.667 6.48 1.877 2.044 1.363 3.345 3.305 3.761 5.617.096.53-.033 1.054-.354 1.438a1.532 1.532 0 01-1.195.55z" fill="#EAEAEA"/></svg>