<svg width="16" height="17" fill="none" xmlns="http://www.w3.org/2000/svg"><path d="M10.653 2.028C9.979 1.3 9.038.9 8 .9c-1.044 0-1.988.398-2.658 1.12-.678.732-1.008 1.725-.93 2.797C4.564 6.933 6.174 8.654 8 8.654c1.825 0 3.432-1.721 3.588-3.836.08-1.063-.253-2.054-.935-2.79zm3.44 14.38H1.907a1.072 1.072 0 01-.838-.386 1.222 1.222 0 01-.248-1.008c.292-1.62 1.204-2.982 2.637-3.937C4.732 10.228 6.344 9.76 8 9.76c1.656 0 3.268.468 4.541 1.316 1.434.955 2.345 2.316 2.637 3.937.067.372-.023.739-.248 1.008a1.073 1.073 0 01-.838.385z" fill="#fff"/></svg>